<svg width="1525" height="768" viewBox="0 0 1525 768" fill="none" xmlns="http://www.w3.org/2000/svg">
<path opacity="0.025" d="M402.035 587.985H330.68C330.07 587.986 329.466 587.753 328.902 587.3C328.339 586.847 327.826 586.181 327.395 585.343C326.964 584.504 326.622 583.508 326.389 582.411C326.156 581.315 326.036 580.14 326.037 578.954V440.123C326.036 438.937 326.156 437.762 326.389 436.666C326.622 435.569 326.964 434.573 327.395 433.734C327.826 432.896 328.339 432.23 328.902 431.777C329.466 431.324 330.07 431.091 330.68 431.092H402.057C402.667 431.091 403.271 431.324 403.835 431.777C404.399 432.23 404.911 432.896 405.342 433.734C405.773 434.573 406.115 435.569 406.348 436.666C406.582 437.762 406.701 438.937 406.701 440.123V578.954C406.694 581.352 406.199 583.648 405.325 585.34C404.451 587.032 403.268 587.983 402.035 587.985Z" fill="#0000FF"/>
<path opacity="0.025" d="M1189.9 424.517H1121.91C1121.33 424.518 1120.75 424.296 1120.22 423.864C1119.68 423.432 1119.19 422.798 1118.78 421.999C1118.37 421.199 1118.04 420.25 1117.82 419.206C1117.6 418.161 1117.48 417.042 1117.48 415.911V283.626C1117.48 282.496 1117.6 281.377 1117.82 280.332C1118.04 279.287 1118.37 278.338 1118.78 277.539C1119.19 276.74 1119.68 276.106 1120.22 275.674C1120.75 275.242 1121.33 275.02 1121.91 275.021H1189.92C1190.5 275.02 1191.08 275.242 1191.61 275.674C1192.15 276.106 1192.64 276.74 1193.05 277.539C1193.46 278.338 1193.79 279.287 1194.01 280.332C1194.23 281.377 1194.35 282.496 1194.35 283.626V415.911C1194.34 418.196 1193.87 420.384 1193.04 421.996C1192.2 423.608 1191.08 424.514 1189.9 424.517Z" fill="#0000FF"/>
<path opacity="0.025" d="M1482.25 201.141H1390.77C1389.99 201.143 1389.21 200.844 1388.49 200.263C1387.77 199.682 1387.11 198.829 1386.56 197.753C1386.01 196.678 1385.57 195.401 1385.27 193.995C1384.97 192.589 1384.82 191.083 1384.82 189.562V11.5791C1384.82 10.058 1384.97 8.55164 1385.27 7.1461C1385.57 5.74056 1386.01 4.46348 1386.56 3.38796C1387.11 2.31243 1387.77 1.45957 1388.49 0.878221C1389.21 0.296869 1389.99 -0.0015484 1390.77 6.04161e-06H1482.28C1483.06 -0.0015484 1483.83 0.296869 1484.56 0.878221C1485.28 1.45957 1485.94 2.31243 1486.49 3.38796C1487.04 4.46348 1487.48 5.74056 1487.78 7.1461C1488.08 8.55164 1488.23 10.058 1488.23 11.5791V189.562C1488.22 192.637 1487.59 195.58 1486.47 197.749C1485.35 199.918 1483.83 201.138 1482.25 201.141Z" fill="#0000FF"/>
<path opacity="0.025" d="M431.719 629.069H389.346C388.985 629.069 388.627 628.931 388.293 628.662C387.959 628.394 387.656 627.999 387.4 627.503C387.145 627.006 386.942 626.416 386.804 625.766C386.666 625.117 386.595 624.421 386.595 623.718V541.259C386.595 540.556 386.666 539.86 386.804 539.21C386.942 538.561 387.145 537.971 387.4 537.474C387.656 536.977 387.959 536.583 388.293 536.314C388.627 536.046 388.985 535.908 389.346 535.908H431.719C432.08 535.908 432.438 536.046 432.772 536.315C433.106 536.584 433.409 536.978 433.664 537.475C433.92 537.972 434.122 538.562 434.26 539.211C434.398 539.86 434.469 540.556 434.469 541.259V623.675C434.471 625.098 434.182 626.465 433.667 627.476C433.151 628.487 432.451 629.06 431.719 629.069Z" fill="#0000FF"/>
<path opacity="0.025" d="M1219.27 467.907H1182.17C1181.85 467.907 1181.54 467.786 1181.25 467.551C1180.95 467.316 1180.69 466.971 1180.46 466.536C1180.24 466.101 1180.06 465.585 1179.94 465.016C1179.82 464.448 1179.76 463.839 1179.76 463.224V391.026C1179.76 390.411 1179.82 389.802 1179.94 389.234C1180.06 388.665 1180.24 388.149 1180.46 387.714C1180.69 387.279 1180.95 386.934 1181.25 386.699C1181.54 386.464 1181.85 386.343 1182.17 386.343H1219.27C1219.58 386.343 1219.9 386.463 1220.19 386.699C1220.48 386.934 1220.75 387.279 1220.97 387.714C1221.19 388.148 1221.37 388.665 1221.49 389.233C1221.61 389.802 1221.68 390.411 1221.68 391.026V463.185C1221.68 464.431 1221.42 465.628 1220.97 466.513C1220.52 467.398 1219.91 467.899 1219.27 467.907Z" fill="#0000FF"/>
<path opacity="0.025" d="M1521.76 259.029H1471.85C1470.99 259.029 1470.16 258.365 1469.56 257.183C1468.95 256.001 1468.61 254.399 1468.61 252.727V155.589C1468.61 153.918 1468.95 152.315 1469.56 151.133C1470.16 149.952 1470.99 149.288 1471.85 149.288H1521.76C1522.19 149.288 1522.61 149.451 1523 149.767C1523.39 150.084 1523.75 150.548 1524.05 151.133C1524.35 151.718 1524.59 152.413 1524.75 153.178C1524.92 153.942 1525 154.762 1525 155.589V252.672C1525 254.35 1524.66 255.961 1524.06 257.152C1523.45 258.344 1522.62 259.018 1521.76 259.029Z" fill="#0000FF"/>
<path opacity="0.025" d="M989.278 695.855H931.386C930.555 695.857 929.732 695.54 928.965 694.923C928.197 694.305 927.499 693.399 926.912 692.256C926.324 691.113 925.858 689.757 925.541 688.263C925.223 686.77 925.06 685.169 925.061 683.553V570.955C925.06 569.339 925.223 567.738 925.541 566.245C925.858 564.752 926.324 563.395 926.912 562.252C927.499 561.109 928.197 560.203 928.965 559.586C929.732 558.968 930.555 558.651 931.386 558.653H989.278C990.109 558.651 990.932 558.968 991.699 559.586C992.467 560.203 993.165 561.109 993.752 562.252C994.34 563.395 994.806 564.752 995.123 566.245C995.441 567.738 995.604 569.339 995.603 570.955V683.553C995.606 685.171 995.444 686.773 995.128 688.268C994.811 689.764 994.345 691.122 993.757 692.266C993.169 693.41 992.471 694.316 991.702 694.932C990.933 695.548 990.109 695.861 989.278 695.855Z" fill="#0000FF"/>
<path opacity="0.025" d="M1017.38 731.796H973.402C972.771 731.797 972.145 731.556 971.562 731.087C970.979 730.618 970.449 729.93 970.003 729.062C969.557 728.194 969.203 727.163 968.962 726.029C968.721 724.895 968.597 723.679 968.598 722.452V636.92C968.597 635.692 968.721 634.477 968.962 633.343C969.203 632.208 969.557 631.178 970.003 630.31C970.449 629.442 970.979 628.754 971.562 628.285C972.145 627.815 972.771 627.575 973.402 627.576H1017.38C1018.01 627.575 1018.63 627.815 1019.22 628.285C1019.8 628.754 1020.33 629.442 1020.77 630.31C1021.22 631.178 1021.57 632.208 1021.82 633.343C1022.06 634.477 1022.18 635.692 1022.18 636.92V722.452C1022.18 723.68 1022.06 724.897 1021.82 726.033C1021.58 727.169 1021.23 728.201 1020.78 729.069C1020.33 729.938 1019.8 730.626 1019.22 731.094C1018.63 731.562 1018.01 731.8 1017.38 731.796Z" fill="#0000FF"/>
<path opacity="0.025" d="M65.1004 714.825H6.41185C5.56957 714.827 4.73532 714.505 3.95698 713.879C3.17864 713.253 2.47143 712.335 1.87585 711.176C1.28027 710.018 0.808102 708.642 0.486207 707.128C0.164312 705.615 -0.000928608 703.992 3.92512e-06 702.354V588.203C-0.000928608 586.565 0.164312 584.943 0.486207 583.429C0.808102 581.915 1.28027 580.539 1.87585 579.381C2.47143 578.222 3.17864 577.304 3.95698 576.678C4.73532 576.052 5.56957 575.73 6.41185 575.732H65.1004C65.9427 575.73 66.7769 576.052 67.5553 576.678C68.3336 577.304 69.0408 578.222 69.6364 579.381C70.232 580.539 70.7043 581.915 71.0262 583.429C71.3481 584.943 71.5132 586.565 71.5122 588.203V702.354C71.5155 703.993 71.3518 705.618 71.0307 707.134C70.7097 708.65 70.2375 710.027 69.6415 711.186C69.0454 712.345 68.3374 713.264 67.558 713.888C66.7786 714.513 65.9433 714.831 65.1004 714.825Z" fill="#0000FF"/>
<path opacity="0.025" d="M170.974 768H44.0446C39.9816 768 36.6982 760.623 36.6982 751.496V678.207C36.6982 669.08 39.9816 661.703 44.0446 661.703H170.973C175.036 661.703 178.321 669.08 178.321 678.207V751.5C178.321 760.57 175.014 768 170.974 768Z" fill="#0000FF"/>
<g opacity="0.025">
<path d="M62.7626 164.041C57.6274 164.041 52.6074 161.079 48.3376 155.53C44.0678 149.981 40.7399 142.094 38.7748 132.866C36.8096 123.638 36.2954 113.484 37.2973 103.688C38.2991 93.8915 40.7719 84.8932 44.4031 77.8305C48.0343 70.7678 52.6607 65.9579 57.6972 64.0093C62.7338 62.0607 67.9543 63.0608 72.6987 66.8831C77.443 70.7054 81.4981 77.1783 84.3511 85.4831C87.2041 93.788 88.7269 103.552 88.7269 113.54C88.7212 126.93 85.9839 139.769 81.1159 149.237C76.2479 158.706 69.647 164.03 62.7626 164.041ZM62.7626 87.5834C60.1232 87.5834 57.543 89.1058 55.3485 91.9579C53.1539 94.81 51.4434 98.864 50.4333 103.607C49.4233 108.35 49.159 113.569 49.6739 118.604C50.1889 123.639 51.4599 128.264 53.3262 131.894C55.1925 135.524 57.5704 137.996 60.1591 138.998C62.7478 139.999 65.431 139.485 67.8695 137.521C70.308 135.556 72.3923 132.229 73.8586 127.961C75.325 123.692 76.1077 118.674 76.1077 113.54C76.1013 106.66 74.6932 100.065 72.1919 95.1997C69.6906 90.3346 66.3 87.5959 62.7626 87.5834Z" fill="#0000FF"/>
</g>
<g opacity="0.025">
<path d="M587.064 714.08C582.759 714.08 578.551 711.597 574.971 706.945C571.391 702.292 568.601 695.68 566.954 687.944C565.306 680.208 564.875 671.695 565.715 663.482C566.555 655.269 568.628 647.725 571.672 641.804C574.717 635.883 578.595 631.85 582.818 630.217C587.04 628.583 591.417 629.421 595.394 632.626C599.372 635.83 602.772 641.257 605.163 648.22C607.555 655.182 608.832 663.368 608.832 671.742C608.826 682.967 606.531 693.73 602.45 701.667C598.369 709.605 592.836 714.069 587.064 714.08ZM587.064 649.972C584.851 649.972 582.688 651.248 580.848 653.64C579.008 656.031 577.573 659.43 576.727 663.407C575.88 667.384 575.658 671.76 576.09 675.982C576.522 680.203 577.587 684.081 579.152 687.125C580.717 690.169 582.711 692.242 584.881 693.081C587.052 693.921 589.302 693.49 591.346 691.843C593.391 690.196 595.139 687.406 596.368 683.827C597.598 680.248 598.254 676.04 598.254 671.736C598.248 665.967 597.068 660.438 594.97 656.359C592.873 652.28 590.03 649.982 587.064 649.972Z" fill="#0000FF"/>
</g>
<g opacity="0.025">
<path d="M1170.52 662.871C1177.23 662.871 1182.67 652.291 1182.67 639.24C1182.67 626.189 1177.23 615.609 1170.52 615.609C1163.81 615.609 1158.37 626.189 1158.37 639.24C1158.37 652.291 1163.81 662.871 1170.52 662.871Z" stroke="#0000FF" stroke-width="10" stroke-miterlimit="10"/>
</g>
<g opacity="0.025">
<path d="M1408.45 476.735C1415.16 476.735 1420.6 466.155 1420.6 453.105C1420.6 440.054 1415.16 429.474 1408.45 429.474C1401.74 429.474 1396.3 440.054 1396.3 453.105C1396.3 466.155 1401.74 476.735 1408.45 476.735Z" stroke="#0000FF" stroke-width="10" stroke-miterlimit="10"/>
</g>
<g opacity="0.025">
<path d="M536.727 314.963C543.437 314.963 548.877 304.383 548.877 291.332C548.877 278.281 543.437 267.701 536.727 267.701C530.018 267.701 524.578 278.281 524.578 291.332C524.578 304.383 530.018 314.963 536.727 314.963Z" stroke="#0000FF" stroke-width="10" stroke-miterlimit="10"/>
</g>
<g opacity="0.025">
<path d="M340.819 197.959C346.69 197.959 351.449 188.702 351.449 177.282C351.449 165.863 346.69 156.605 340.819 156.605C334.947 156.605 330.188 165.863 330.188 177.282C330.188 188.702 334.947 197.959 340.819 197.959Z" stroke="#0000FF" stroke-width="8" stroke-miterlimit="10"/>
</g>
<g opacity="0.025">
<path d="M959.931 262.337C966.641 262.337 972.08 251.757 972.08 238.706C972.08 225.655 966.641 215.075 959.931 215.075C953.221 215.075 947.781 225.655 947.781 238.706C947.781 251.757 953.221 262.337 959.931 262.337Z" stroke="#0000FF" stroke-width="10" stroke-miterlimit="10"/>
</g>
<g opacity="0.025">
<path d="M131.748 457.245C138.458 457.245 143.897 446.666 143.897 433.615C143.897 420.564 138.458 409.984 131.748 409.984C125.038 409.984 119.599 420.564 119.599 433.615C119.599 446.666 125.038 457.245 131.748 457.245Z" stroke="#0000FF" stroke-width="10" stroke-miterlimit="10"/>
</g>
<g opacity="0.025">
<path d="M1485.39 727.855C1492.1 727.855 1497.54 717.275 1497.54 704.225C1497.54 691.174 1492.1 680.594 1485.39 680.594C1478.68 680.594 1473.24 691.174 1473.24 704.225C1473.24 717.275 1478.68 727.855 1485.39 727.855Z" stroke="#0000FF" stroke-width="10" stroke-miterlimit="10"/>
</g>
</svg>
