<svg width="718" height="566" viewBox="0 0 718 566" fill="none" xmlns="http://www.w3.org/2000/svg">
<path d="M143.308 555.872C143.308 555.872 101.767 558.756 102.488 506.448C102.488 506.448 104.147 462.786 119.166 423.433C119.166 423.433 127.775 403.765 111.636 369.211C111.636 369.211 51.9241 267.961 73.7022 223.337C73.7022 223.337 177.808 24.2018 329.534 16.0461C329.534 16.0461 502.241 -6.98708 599.066 33.3189C599.066 33.3189 666.855 50.5918 621.665 147.043C621.665 147.043 556.048 243.494 597.448 301.794C597.448 301.794 695.906 429.251 565.171 555.905L143.308 555.872Z" fill="#0071F2"/>
<path opacity="0.7" d="M143.308 555.872C143.308 555.872 101.767 558.756 102.488 506.448C102.488 506.448 104.147 462.786 119.166 423.433C119.166 423.433 127.775 403.765 111.636 369.211C111.636 369.211 51.9241 267.961 73.7022 223.337C73.7022 223.337 177.808 24.2018 329.534 16.0461C329.534 16.0461 502.241 -6.98708 599.066 33.3189C599.066 33.3189 666.855 50.5918 621.665 147.043C621.665 147.043 556.048 243.494 597.448 301.794C597.448 301.794 695.906 429.251 565.171 555.905L143.308 555.872Z" fill="white"/>
<path d="M318.089 114.685H80.7266V261.819H318.089V114.685Z" fill="white"/>
<path d="M307.333 304.206H144.221V544.525H307.333V304.206Z" fill="white"/>
<path d="M307.939 545.138H143.615V303.601H307.939V545.138ZM144.826 543.92H306.719V304.819H144.826V543.92Z" fill="#2F2E41"/>
<path d="M428.116 454.365C427.793 473.038 422.792 519.387 422.792 519.387L404.77 519.718C404.77 519.718 404.422 515.309 403.784 508.38C401.777 486.507 396.908 439.438 391.095 426.019C391.095 426.019 387.413 415.352 385.422 394.009L383.407 365.34L381.748 411.688C381.748 411.688 377.029 468.936 368.819 485.363C368.599 485.801 368.268 486.173 367.859 486.444C367.45 486.714 366.978 486.873 366.489 486.905C363.793 487.104 358.195 486.905 354.049 483.034C354.049 483.034 354.049 479.81 354.049 474.58C354.049 453.859 353.933 401.394 353.394 392.343C353.394 392.343 345.059 328.333 349.048 300.343L351.727 299.349L422.8 306.128L424.185 306.261C424.185 306.261 428.116 310.67 427.453 367.694C427.453 367.694 427.453 409.368 428.448 419.04C429.443 428.712 428.448 435.691 428.116 454.365Z" fill="#2F2E41"/>
<path opacity="0.2" d="M428.117 454.365C427.793 473.038 422.792 519.387 422.792 519.387L404.771 519.718C404.771 519.718 404.423 515.309 403.784 508.38C413.529 508.247 417.12 502.711 417.12 502.711C422.096 493.038 421.125 440.366 421.125 440.366C415.453 430.362 420.777 427.362 420.777 427.362C425.753 422.389 421.781 415.352 421.781 415.352C414.781 407.685 420.777 393.015 420.777 393.015C429.792 366.675 421.449 307.645 421.449 307.645L422.801 306.095L424.186 306.228C424.186 306.228 428.117 310.637 427.453 367.661C427.453 367.661 427.453 409.334 428.448 419.007C429.444 428.679 428.448 435.691 428.117 454.365Z" fill="black"/>
<path d="M478 216.325C472.029 213.465 453.61 232.072 453.61 232.072L432.561 200.046C428.008 194.071 410.31 192.388 410.31 192.388L381.135 191.916C377.544 191.974 360.758 195.604 360.758 195.604C346.659 198.48 341.393 233.854 341.393 233.854L334.692 272.097C330.62 293.132 343.815 292.411 343.815 292.411L347.746 296.174L349.073 297.442C356.728 314.176 388.308 316.323 388.308 316.323C408.876 320.384 424.185 306.286 424.185 306.286C421.788 300.783 423.704 294.334 423.704 294.334C426.814 284.289 429.443 261.579 429.443 261.579C453.12 281.189 467.476 259.664 467.476 259.664L489.968 224.29C481.119 224.969 478 216.325 478 216.325ZM356.089 242.922H353.07C353.07 242.922 353.742 238.388 356.089 236.374V242.922Z" fill="#0071F2"/>
<path opacity="0.2" d="M383.407 365.34L381.748 411.688C381.748 411.688 377.03 468.936 368.819 485.363C368.599 485.801 368.268 486.173 367.859 486.444C367.45 486.714 366.978 486.873 366.489 486.905C363.793 487.104 358.195 486.905 354.049 483.034C354.049 483.034 354.049 479.81 354.049 474.58C357.656 471.629 367.185 461.393 369.068 435.02C368.631 433.075 368.614 431.059 369.017 429.107C369.421 427.155 370.235 425.311 371.407 423.698C371.407 423.698 375.072 421.021 371.407 416.023C371.407 416.023 365.834 414.946 372.236 406.077C372.236 406.077 380.927 356.032 382.321 336.215C382.321 336.215 384.469 355.875 383.407 365.34Z" fill="black"/>
<path d="M404.771 519.718C404.771 519.718 404.198 526.929 401.901 530.642C401.901 530.642 382.263 551.504 391.46 552.034C391.46 552.034 399.065 556.46 413.404 542.138L420.611 534.786C421.776 533.599 422.449 532.015 422.493 530.352L422.792 519.387L404.771 519.718Z" fill="#0071F2"/>
<path d="M354.066 483.034C354.066 483.034 346.37 490.941 340.116 490.568C340.116 490.568 311.671 493.975 317.36 500.042C317.36 500.042 339.453 507.75 363.238 496.884C364.097 496.489 364.831 495.866 365.359 495.083C365.887 494.299 366.189 493.385 366.232 492.441L366.481 486.905C366.481 486.905 359.291 487.634 354.066 483.034Z" fill="#0071F2"/>
<path d="M478 216.325C478 216.325 476.134 202.989 482.147 197.701L495.342 186.818C495.602 186.605 495.927 186.486 496.263 186.478C496.6 186.471 496.929 186.576 497.199 186.777C497.51 187.014 497.717 187.363 497.776 187.749C497.834 188.136 497.741 188.53 497.514 188.849L490.788 198.231C490.788 198.231 494.661 198.58 495.018 202.102C495.018 202.102 497.307 201.398 499.074 204.589C499.074 204.589 502.955 204.058 503.66 208.642L503.743 210.415C503.814 211.108 503.676 211.806 503.346 212.419C503.016 213.032 502.51 213.532 501.892 213.853C501.274 214.175 500.574 214.304 499.882 214.223C499.19 214.142 498.539 213.855 498.012 213.399C498.012 213.399 498.709 222.027 489.984 224.232C489.967 224.248 481.633 225.442 478 216.325Z" fill="#F9B499"/>
<path d="M481.426 204.605C482.355 203.412 483.317 202.243 484.27 201.066C485.224 199.889 486.194 198.737 487.156 197.568L488.624 195.811C488.736 195.697 488.879 195.617 489.035 195.582C489.19 195.547 489.353 195.557 489.503 195.612C489.656 195.667 489.789 195.765 489.886 195.895C489.984 196.025 490.041 196.18 490.051 196.342C490.085 196.73 490.099 197.12 490.092 197.51C490.058 199.054 489.821 200.587 489.387 202.069C489.286 202.73 489.255 203.399 489.296 204.066C489.329 204.709 489.483 205.339 489.752 205.923C489.878 206.188 490.062 206.422 490.29 206.607C490.518 206.792 490.785 206.924 491.071 206.992C491.696 207.116 492.341 207.09 492.953 206.918L493.484 206.818L493.426 207.324C493.364 207.898 493.381 208.478 493.476 209.048C493.537 209.588 493.756 210.098 494.106 210.515C494.286 210.699 494.506 210.84 494.749 210.925C494.992 211.01 495.252 211.037 495.508 211.004C495.787 210.977 496.064 210.93 496.337 210.863L497.166 210.556L497.739 210.349L497.548 210.904C497.448 211.213 497.415 211.54 497.451 211.863C497.487 212.186 497.591 212.497 497.755 212.777C498.118 213.355 498.678 213.782 499.331 213.979C499.993 214.216 500.717 214.216 501.379 213.979C502.054 213.721 502.663 213.316 503.163 212.794C502.709 213.376 502.124 213.842 501.454 214.153C500.753 214.458 499.967 214.51 499.231 214.302C498.867 214.195 498.516 214.045 498.187 213.855C497.852 213.644 497.569 213.36 497.357 213.026C497.14 212.687 496.997 212.305 496.94 211.906C496.883 211.507 496.912 211.1 497.025 210.714L497.399 211.07L496.52 211.435C496.205 211.529 495.883 211.598 495.558 211.642C495.205 211.698 494.844 211.67 494.504 211.561C494.163 211.451 493.854 211.263 493.6 211.012C493.144 210.5 492.855 209.861 492.771 209.18C492.659 208.54 492.634 207.888 492.696 207.241L493.169 207.655C492.432 207.874 491.652 207.911 490.897 207.763C490.502 207.67 490.131 207.492 489.812 207.242C489.493 206.991 489.232 206.674 489.047 206.312C488.708 205.631 488.521 204.885 488.5 204.124C488.466 203.392 488.51 202.659 488.633 201.936V201.895C489.072 200.481 489.32 199.015 489.371 197.535C489.392 197.171 489.392 196.806 489.371 196.441C489.37 196.412 489.36 196.383 489.344 196.359C489.328 196.335 489.305 196.316 489.278 196.304C489.251 196.292 489.222 196.287 489.193 196.291C489.164 196.295 489.136 196.307 489.114 196.325L487.604 197.983C486.584 199.102 485.581 200.237 484.544 201.34C483.507 202.442 482.479 203.519 481.426 204.605Z" fill="#F7A48B"/>
<path d="M495.001 202.135C495.015 202.984 494.869 203.827 494.57 204.622C494.309 205.421 493.898 206.164 493.359 206.81C493.346 205.961 493.492 205.118 493.79 204.323C494.058 203.527 494.469 202.785 495.001 202.135Z" fill="#F7A48B"/>
<path d="M499.057 204.605C499.05 205.689 498.888 206.766 498.576 207.804C498.295 208.851 497.862 209.85 497.291 210.772C497.344 208.599 497.952 206.476 499.057 204.605Z" fill="#F7A48B"/>
<path opacity="0.2" d="M389.204 205.964C386.973 206.271 385.887 200.403 385.887 200.403C383.656 200.602 379.202 203.942 379.202 203.942C379.202 203.942 379.609 237.137 383.656 236.225C383.656 236.225 385.887 237.236 390.34 226.204L401.179 206.171C401.179 206.171 395.432 203.685 392.529 203.121C392.012 204.083 391.303 204.929 390.448 205.608C390.211 205.746 389.953 205.844 389.685 205.898C389.527 205.936 389.366 205.959 389.204 205.964Z" fill="white"/>
<path d="M404.953 187.912L392.944 202.508C392.316 203.695 391.472 204.754 390.456 205.633C390.111 205.919 389.672 206.068 389.224 206.051C388.776 206.034 388.349 205.853 388.026 205.542C384.891 202.4 384.817 189.28 384.891 184.746C385.692 184.882 386.501 184.951 387.313 184.954C393.342 184.954 398.708 181.282 402.241 175.513C402.294 179.787 403.216 184.006 404.953 187.912Z" fill="#F9B499"/>
<path d="M384.858 184.746C384.858 184.746 384.526 191.128 385.14 193.723C385.14 193.723 392.073 192.115 395.54 182.218C395.54 182.218 391.758 185.923 384.858 184.746Z" fill="#F7A48B"/>
<path d="M392.505 203.122C392.505 203.122 404.663 206.478 407.126 209.893L409.73 191.559C409.73 191.559 410.311 188.244 404.953 187.912L392.505 203.122Z" fill="#0071F2"/>
<path d="M374.119 209.305C374.119 209.305 380.397 201.306 385.862 200.403C385.862 200.403 384.444 191.692 384.851 188.866C384.851 188.866 376.649 191.899 374.119 209.305Z" fill="#0071F2"/>
<path opacity="0.2" d="M392.505 203.122C392.505 203.122 404.663 206.478 407.126 209.893L409.73 191.559C409.73 191.559 410.311 188.244 404.953 187.912L392.505 203.122Z" fill="black"/>
<path opacity="0.2" d="M374.119 209.305C374.119 209.305 380.397 201.306 385.862 200.403C385.862 200.403 384.444 191.692 384.851 188.866C384.851 188.866 376.649 191.899 374.119 209.305Z" fill="black"/>
<path d="M406.636 159.135C406.692 164.895 405.166 170.56 402.224 175.513C398.667 181.315 393.301 184.954 387.296 184.954C386.485 184.951 385.675 184.882 384.875 184.746C375.329 183.172 367.948 172.314 367.948 159.053C367.948 144.772 376.615 133.185 387.296 133.185C397.978 133.185 406.636 144.813 406.636 159.135Z" fill="#F9B499"/>
<path d="M414.889 163.354C414.117 164.516 413.181 165.56 412.11 166.454L405.384 161.829C405.384 161.829 403.071 151.734 390.457 150.69C390.532 151.647 390.961 152.543 391.66 153.203C392.358 153.863 393.277 154.24 394.238 154.262C394.238 154.262 389.685 155.712 384.817 150.673C383.701 149.449 382.226 148.608 380.604 148.269C378.945 147.946 376.98 148.153 375.935 150.259C375.935 150.259 372.759 154.958 368.189 154.237C368.189 154.237 367.874 157.892 367.94 159.094H367.891C367.327 158.721 362.558 155.306 363.221 149.637C363.545 147.034 365.004 143.935 368.571 140.437C368.571 140.437 366.671 129.927 379.924 125.518C379.924 125.518 400.549 118.995 401.81 128.668C401.81 128.668 417.567 128.029 418.853 142.327C418.811 142.269 420.47 155.215 414.889 163.354Z" fill="#2F2E41"/>
<path d="M368.065 154.013L367.99 157.014C367.99 157.014 372.195 157.693 379.186 152.513C379.186 152.513 389.138 157.619 396.403 155.663C396.403 155.663 401.288 155.961 404.448 162.724L405.376 161.829C405.376 161.829 403.419 151.941 390.448 150.681C390.448 150.681 390.448 153.831 394.238 154.262C394.238 154.262 389.669 155.663 384.784 150.623C383.675 149.43 382.229 148.603 380.638 148.253C378.929 147.913 376.947 148.095 375.935 150.267C375.927 150.267 372.427 155.29 368.065 154.013Z" fill="#F7A48B"/>
<path opacity="0.2" d="M414.888 163.354C414.117 164.516 413.181 165.56 412.11 166.454L405.384 161.829C405.384 161.829 403.07 151.734 390.456 150.69C390.532 151.647 390.961 152.543 391.66 153.203C392.358 153.863 393.277 154.24 394.238 154.262C394.238 154.262 389.685 155.712 384.817 150.673C383.701 149.449 382.226 148.608 380.604 148.27C378.945 147.946 376.98 148.153 375.935 150.259C375.935 150.259 372.758 154.958 368.189 154.237C368.189 154.237 367.874 157.892 367.94 159.094H367.89C367.318 158.746 362.541 155.547 363.163 149.645H363.246C363.777 149.488 367.666 148.079 370.345 141.423C370.345 141.423 376.723 126.894 394.777 131.743C394.777 131.743 392.795 128.427 391.244 127.665C391.244 127.665 397.962 127.773 400.823 133.467C400.823 133.467 409.738 134.345 413.702 140.097C413.702 140.097 406.985 138.332 408.727 142.078C408.718 142.012 415.983 148.087 414.888 163.354Z" fill="black"/>
<path d="M411.833 169.274C412.959 165.857 411.724 162.379 409.075 161.507C406.425 160.635 403.365 162.699 402.238 166.116C401.112 169.533 402.347 173.01 404.996 173.883C407.646 174.755 410.706 172.691 411.833 169.274Z" fill="#F9B499"/>
<path opacity="0.2" d="M424.185 306.245C424.185 306.245 408.876 320.335 388.309 316.282C388.309 316.282 356.728 314.135 349.073 297.401L347.746 296.133L357.939 299.075C374.193 316.282 409.116 307.678 409.116 307.678C417.965 305.291 414.623 300.269 414.623 300.269C410.783 294.293 418.446 283.526 418.446 283.526C424.666 270.621 423.472 250.307 423.472 250.307L429.443 261.537C429.443 261.537 426.814 284.247 423.704 294.293C423.704 294.293 421.789 300.741 424.185 306.245Z" fill="black"/>
<path opacity="0.2" d="M428.664 197.038C428.664 197.038 430.547 207.531 436.816 210.821C436.816 210.821 439.006 211.443 436.344 217.551C436.344 217.551 433.366 222.408 440.731 226.95C440.731 226.95 447.001 229.768 444.048 234.31L439.96 238.396C439.929 238.428 439.91 238.468 439.904 238.511C439.898 238.554 439.905 238.598 439.925 238.636C439.946 238.675 439.977 238.706 440.016 238.725C440.055 238.745 440.099 238.751 440.142 238.745L447.498 237.443C447.498 237.443 444.77 243.411 446.047 247.787C446.047 247.897 446.09 248.002 446.168 248.08C446.246 248.158 446.352 248.202 446.461 248.202C446.571 248.202 446.677 248.158 446.755 248.08C446.832 248.002 446.876 247.897 446.876 247.787C447.639 244.555 449.928 236.059 453.677 232.155L432.628 200.129C431.47 198.905 430.134 197.863 428.664 197.038Z" fill="black"/>
<path d="M329.095 245.044L346.834 300.89L386.194 297.02L368.247 244.024L329.095 245.044Z" fill="#0071F2"/>
<path opacity="0.4" d="M329.095 245.044L346.834 300.89L386.194 297.02L368.247 244.024L329.095 245.044Z" fill="white"/>
<path d="M370.901 241.778L388.641 295.18L386.194 297.02L368.247 244.024L329.095 245.044L333.374 242.798L370.901 241.778Z" fill="#0071F2"/>
<path opacity="0.5" d="M370.901 241.778L388.641 295.18L386.194 297.02L368.247 244.024L329.095 245.044L333.374 242.798L370.901 241.778Z" fill="white"/>
<path opacity="0.4" d="M354.239 275.777C358.11 275.777 361.247 272.693 361.247 268.889C361.247 265.085 358.11 262.002 354.239 262.002C350.369 262.002 347.231 265.085 347.231 268.889C347.231 272.693 350.369 275.777 354.239 275.777Z" fill="white"/>
<path d="M342.513 273.821C343.074 273.985 343.57 274.321 343.931 274.782C344.074 274.965 344.162 275.185 344.184 275.416C344.206 275.647 344.161 275.879 344.054 276.085C343.947 276.291 343.784 276.463 343.582 276.578C343.381 276.694 343.151 276.75 342.919 276.738C341.724 276.597 340.556 276.281 339.452 275.802C339.246 275.709 339.029 275.645 338.805 275.611C337.711 275.462 334.095 274.583 334.269 269.809C334.299 269.201 334.087 268.605 333.68 268.152C332.61 266.958 330.57 264.422 330.106 261.902C330.021 261.305 330.071 260.697 330.253 260.121C330.435 259.546 330.744 259.02 331.157 258.58C331.571 258.141 332.078 257.8 332.641 257.583C333.204 257.366 333.809 257.279 334.41 257.327L342.114 257.816C342.51 257.823 342.887 257.986 343.163 258.271C343.438 258.555 343.589 258.937 343.582 259.333C343.576 259.728 343.412 260.105 343.128 260.38C342.843 260.656 342.461 260.806 342.065 260.8L339.353 260.874C339.203 260.901 339.063 260.969 338.949 261.07C338.835 261.17 338.751 261.301 338.706 261.446C338.676 261.639 338.716 261.837 338.817 262.003C338.919 262.17 339.076 262.296 339.262 262.358H342.322C342.707 262.365 343.074 262.522 343.344 262.796C343.614 263.071 343.765 263.44 343.765 263.825C343.763 264.183 343.631 264.528 343.393 264.795C343.154 265.062 342.827 265.233 342.471 265.275L341.136 265.433C340.954 265.454 340.778 265.512 340.619 265.604C340.46 265.696 340.322 265.82 340.214 265.968C340.106 266.116 340.029 266.285 339.989 266.464C339.95 266.643 339.948 266.828 339.983 267.008C340.039 267.314 340.201 267.592 340.44 267.791C340.68 267.991 340.982 268.101 341.293 268.102H342.952C343.398 268.102 343.826 268.274 344.146 268.584C344.466 268.893 344.654 269.315 344.669 269.759C344.685 270.208 344.524 270.644 344.222 270.976C343.92 271.307 343.5 271.507 343.052 271.533L341.211 271.641C341.123 271.646 341.037 271.67 340.959 271.712C340.881 271.753 340.813 271.811 340.76 271.881C340.706 271.951 340.668 272.031 340.649 272.117C340.629 272.203 340.629 272.292 340.647 272.379C340.647 272.379 340.431 273.216 342.513 273.821Z" fill="#F9B499"/>
<path opacity="0.4" d="M641.727 97.5533H478.614V337.873H641.727V97.5533Z" fill="white"/>
<path opacity="0.4" d="M642.332 338.486H478V96.9731H642.332V338.486ZM479.219 337.268H641.112V98.1667H479.219V337.268Z" fill="#2F2E41"/>
<path d="M343.575 259.49C343.575 259.49 343.16 260.808 342.065 260.8L339.354 260.874C339.239 260.887 339.129 260.927 339.033 260.991C338.937 261.055 338.858 261.14 338.801 261.24C338.745 261.341 338.713 261.453 338.708 261.568C338.703 261.683 338.725 261.797 338.773 261.902C338.571 261.829 338.386 261.714 338.232 261.564C338.078 261.415 337.957 261.233 337.879 261.033C337.8 260.833 337.765 260.619 337.776 260.404C337.788 260.189 337.845 259.979 337.944 259.789C337.944 259.789 338.143 259.3 339.669 259.391L343.575 259.49Z" fill="#F7A48B"/>
<path d="M264.448 193.283H167.773V194.502H264.448V193.283Z" fill="#2F2E41"/>
<path d="M162.465 189.769H155.988V196.242H162.465V189.769Z" fill="#0071F2"/>
<path d="M264.448 207.423H167.773V208.641H264.448V207.423Z" fill="#2F2E41"/>
<path d="M162.465 203.892H155.988V210.365H162.465V203.892Z" fill="#0071F2"/>
<path d="M264.448 221.546H167.773V222.765H264.448V221.546Z" fill="#2F2E41"/>
<path d="M162.465 218.016H155.988V224.489H162.465V218.016Z" fill="#0071F2"/>
<path d="M264.448 235.67H167.773V236.888H264.448V235.67Z" fill="#2F2E41"/>
<path d="M162.465 232.155H155.988V238.629H162.465V232.155Z" fill="#0071F2"/>
<path d="M144.137 127.947H142.918V261.181H144.137V127.947Z" fill="#2F2E41"/>
<path d="M175.295 179.359C171.12 179.361 167.039 178.124 163.568 175.807C160.096 173.49 157.391 170.195 155.794 166.341C154.197 162.486 153.779 158.244 154.595 154.153C155.411 150.061 157.423 146.303 160.377 143.355C163.33 140.407 167.093 138.4 171.188 137.59C175.283 136.779 179.527 137.201 183.382 138.802C187.237 140.403 190.53 143.11 192.845 146.582C195.159 150.054 196.391 154.135 196.385 158.307C196.374 163.891 194.147 169.243 190.194 173.189C186.241 177.136 180.883 179.355 175.295 179.359ZM175.295 138.406C171.358 138.406 167.51 139.573 164.237 141.759C160.964 143.945 158.413 147.051 156.906 150.686C155.4 154.321 155.005 158.32 155.773 162.179C156.541 166.038 158.437 169.582 161.221 172.364C164.004 175.146 167.551 177.04 171.412 177.808C175.273 178.576 179.275 178.182 182.912 176.676C186.549 175.17 189.657 172.621 191.844 169.35C194.031 166.078 195.199 162.233 195.199 158.298C195.199 153.023 193.102 147.963 189.369 144.233C185.636 140.502 180.574 138.406 175.295 138.406Z" fill="#2F2E41"/>
<path d="M175.295 163.81C173.737 163.812 172.212 163.351 170.916 162.487C169.619 161.623 168.608 160.394 168.01 158.955C167.413 157.516 167.256 155.933 167.559 154.405C167.862 152.877 168.611 151.473 169.713 150.371C170.814 149.269 172.218 148.519 173.747 148.214C175.275 147.91 176.86 148.065 178.3 148.661C179.74 149.257 180.971 150.266 181.837 151.561C182.703 152.856 183.165 154.378 183.165 155.936C183.165 158.023 182.337 160.025 180.861 161.501C179.385 162.977 177.383 163.808 175.295 163.81ZM175.295 149.281C173.983 149.281 172.7 149.67 171.609 150.398C170.518 151.127 169.668 152.162 169.166 153.374C168.663 154.585 168.532 155.919 168.788 157.205C169.044 158.491 169.676 159.673 170.604 160.6C171.532 161.527 172.714 162.159 174.001 162.415C175.288 162.67 176.622 162.539 177.834 162.037C179.046 161.535 180.083 160.685 180.812 159.595C181.541 158.505 181.93 157.223 181.93 155.911C181.93 154.153 181.231 152.466 179.987 151.223C178.742 149.979 177.055 149.281 175.295 149.281Z" fill="#2F2E41"/>
<path d="M175.295 179.359C170.707 179.368 166.244 177.865 162.598 175.082L162.291 174.867L162.357 174.502C162.867 171.444 164.446 168.666 166.813 166.663C169.18 164.659 172.181 163.559 175.282 163.559C178.384 163.559 181.385 164.659 183.752 166.663C186.119 168.666 187.698 171.444 188.208 174.502L188.266 174.867L187.967 175.082C184.326 177.857 179.874 179.36 175.295 179.359ZM163.643 174.344C167.028 176.812 171.109 178.142 175.299 178.142C179.489 178.142 183.57 176.812 186.955 174.344C186.419 171.649 184.964 169.223 182.839 167.479C180.713 165.736 178.049 164.783 175.299 164.783C172.549 164.783 169.885 165.736 167.759 167.479C165.634 169.223 164.179 171.649 163.643 174.344Z" fill="#2F2E41"/>
<path d="M112.922 167.225C110.852 167.226 108.828 166.615 107.106 165.467C105.385 164.32 104.042 162.688 103.248 160.777C102.454 158.867 102.245 156.765 102.646 154.736C103.048 152.706 104.042 150.842 105.504 149.378C106.966 147.913 108.829 146.915 110.858 146.509C112.888 146.103 114.992 146.307 116.905 147.096C118.818 147.885 120.455 149.223 121.607 150.941C122.759 152.659 123.376 154.68 123.38 156.748C123.382 159.523 122.281 162.186 120.32 164.15C118.359 166.114 115.698 167.22 112.922 167.225ZM112.922 147.532C111.091 147.529 109.3 148.068 107.776 149.082C106.252 150.096 105.063 151.539 104.36 153.228C103.657 154.918 103.47 156.778 103.825 158.573C104.18 160.368 105.059 162.018 106.352 163.313C107.645 164.609 109.293 165.492 111.088 165.851C112.884 166.211 114.745 166.03 116.437 165.331C118.13 164.633 119.577 163.449 120.595 161.928C121.614 160.408 122.159 158.62 122.16 156.79C122.16 154.339 121.188 151.988 119.456 150.252C117.724 148.517 115.374 147.538 112.922 147.532Z" fill="#2F2E41"/>
<path d="M112.921 159.757C112.111 159.749 111.321 159.501 110.652 159.046C109.982 158.59 109.463 157.946 109.158 157.196C108.854 156.446 108.778 155.622 108.941 154.829C109.104 154.036 109.499 153.309 110.074 152.739C110.65 152.169 111.382 151.783 112.177 151.628C112.972 151.473 113.795 151.556 114.543 151.868C115.291 152.18 115.929 152.706 116.379 153.379C116.828 154.053 117.068 154.845 117.068 155.654C117.057 156.746 116.615 157.79 115.839 158.558C115.062 159.326 114.014 159.757 112.921 159.757ZM112.921 152.778C112.35 152.778 111.792 152.948 111.317 153.265C110.842 153.582 110.472 154.033 110.254 154.561C110.036 155.088 109.979 155.669 110.091 156.228C110.203 156.788 110.479 157.302 110.883 157.705C111.288 158.108 111.803 158.382 112.363 158.493C112.924 158.603 113.504 158.545 114.031 158.325C114.559 158.105 115.009 157.734 115.325 157.259C115.641 156.784 115.809 156.225 115.807 155.654C115.807 155.276 115.732 154.901 115.587 154.552C115.442 154.202 115.23 153.885 114.961 153.618C114.693 153.351 114.375 153.139 114.025 152.995C113.675 152.851 113.3 152.777 112.921 152.778Z" fill="#2F2E41"/>
<path d="M112.921 167.225C110.649 167.233 108.436 166.493 106.627 165.12L106.328 164.887V164.523C106.602 162.991 107.407 161.604 108.601 160.606C109.795 159.607 111.302 159.06 112.859 159.06C114.416 159.06 115.923 159.607 117.117 160.606C118.311 161.604 119.116 162.991 119.39 164.523V164.887L119.091 165.12C117.313 166.463 115.15 167.201 112.921 167.225ZM107.663 164.365C109.213 165.418 111.043 165.981 112.917 165.981C114.791 165.981 116.621 165.418 118.171 164.365C117.884 163.189 117.211 162.142 116.258 161.394C115.305 160.646 114.129 160.24 112.917 160.24C111.706 160.24 110.529 160.646 109.576 161.394C108.624 162.142 107.95 163.189 107.663 164.365Z" fill="#2F2E41"/>
<path d="M112.922 208.492C110.85 208.496 108.823 207.885 107.099 206.737C105.374 205.589 104.029 203.956 103.234 202.044C102.438 200.132 102.228 198.027 102.629 195.995C103.031 193.964 104.026 192.097 105.49 190.631C106.953 189.165 108.819 188.166 110.85 187.759C112.882 187.353 114.989 187.558 116.904 188.349C118.819 189.139 120.456 190.48 121.609 192.201C122.762 193.921 123.378 195.945 123.38 198.016C123.38 200.79 122.279 203.451 120.318 205.415C118.357 207.379 115.698 208.486 112.922 208.492ZM112.922 188.783C111.091 188.779 109.3 189.319 107.776 190.333C106.252 191.347 105.063 192.79 104.36 194.479C103.657 196.169 103.47 198.029 103.825 199.824C104.18 201.619 105.059 203.269 106.352 204.564C107.645 205.86 109.293 206.743 111.088 207.102C112.884 207.461 114.745 207.28 116.437 206.582C118.13 205.884 119.577 204.699 120.595 203.179C121.614 201.659 122.159 199.871 122.16 198.041C122.163 195.589 121.191 193.237 119.458 191.501C117.726 189.765 115.375 188.787 112.922 188.783Z" fill="#2F2E41"/>
<path d="M112.921 201C112.111 200.991 111.321 200.744 110.652 200.288C109.982 199.832 109.463 199.189 109.158 198.438C108.854 197.688 108.778 196.865 108.941 196.071C109.104 195.278 109.499 194.551 110.074 193.982C110.65 193.412 111.382 193.025 112.177 192.87C112.972 192.715 113.795 192.799 114.543 193.111C115.291 193.422 115.929 193.948 116.379 194.622C116.828 195.296 117.068 196.087 117.068 196.897C117.057 197.989 116.615 199.032 115.839 199.801C115.062 200.569 114.014 201 112.921 201ZM112.921 194.013C112.35 194.013 111.792 194.182 111.318 194.499C110.843 194.816 110.473 195.266 110.255 195.793C110.036 196.32 109.979 196.9 110.091 197.46C110.202 198.019 110.477 198.533 110.88 198.936C111.284 199.34 111.798 199.615 112.358 199.726C112.918 199.837 113.498 199.78 114.026 199.562C114.553 199.343 115.004 198.974 115.321 198.499C115.638 198.025 115.807 197.467 115.807 196.897C115.807 196.132 115.503 195.398 114.962 194.857C114.421 194.316 113.687 194.013 112.921 194.013Z" fill="#2F2E41"/>
<path d="M112.921 208.492C110.648 208.49 108.437 207.745 106.627 206.37L106.328 206.147V205.79C106.602 204.258 107.407 202.872 108.601 201.873C109.795 200.874 111.302 200.327 112.859 200.327C114.416 200.327 115.923 200.874 117.117 201.873C118.311 202.872 119.116 204.258 119.39 205.79V206.147L119.091 206.37C117.315 207.719 115.152 208.462 112.921 208.492ZM107.663 205.616C109.211 206.673 111.042 207.239 112.917 207.239C114.792 207.239 116.623 206.673 118.171 205.616C117.884 204.44 117.211 203.393 116.258 202.645C115.305 201.897 114.129 201.49 112.917 201.49C111.706 201.49 110.529 201.897 109.576 202.645C108.624 203.393 107.95 204.44 107.663 205.616Z" fill="#2F2E41"/>
<path d="M112.922 249.718C110.85 249.722 108.823 249.111 107.099 247.963C105.374 246.815 104.029 245.182 103.234 243.27C102.438 241.358 102.228 239.253 102.629 237.221C103.031 235.19 104.026 233.323 105.49 231.857C106.953 230.391 108.819 229.392 110.85 228.985C112.882 228.579 114.989 228.784 116.904 229.575C118.819 230.366 120.456 231.706 121.609 233.427C122.762 235.147 123.378 237.171 123.38 239.242C123.38 242.016 122.279 244.677 120.318 246.641C118.357 248.605 115.698 249.712 112.922 249.718ZM112.922 230.009C111.091 230.005 109.3 230.545 107.776 231.559C106.252 232.573 105.063 234.016 104.36 235.705C103.657 237.395 103.47 239.255 103.825 241.05C104.18 242.845 105.059 244.495 106.352 245.79C107.645 247.086 109.293 247.969 111.088 248.328C112.884 248.687 114.745 248.506 116.437 247.808C118.13 247.11 119.577 245.926 120.595 244.405C121.614 242.885 122.159 241.097 122.16 239.267C122.158 236.816 121.185 234.467 119.454 232.732C117.722 230.997 115.374 230.018 112.922 230.009Z" fill="#2F2E41"/>
<path d="M112.921 242.234C112.111 242.226 111.321 241.978 110.651 241.522C109.981 241.066 109.461 240.422 109.157 239.671C108.853 238.92 108.778 238.096 108.942 237.303C109.106 236.509 109.501 235.782 110.077 235.213C110.654 234.644 111.386 234.258 112.182 234.104C112.978 233.95 113.801 234.034 114.549 234.347C115.296 234.66 115.934 235.188 116.383 235.862C116.831 236.537 117.069 237.33 117.068 238.14C117.055 239.23 116.612 240.271 115.836 241.038C115.06 241.804 114.012 242.234 112.921 242.234ZM112.921 235.255C112.35 235.255 111.792 235.424 111.318 235.741C110.843 236.058 110.473 236.509 110.255 237.036C110.036 237.563 109.979 238.143 110.091 238.702C110.202 239.262 110.477 239.776 110.88 240.179C111.284 240.583 111.798 240.857 112.358 240.968C112.918 241.08 113.498 241.023 114.026 240.804C114.553 240.586 115.004 240.216 115.321 239.742C115.638 239.268 115.807 238.71 115.807 238.14C115.807 237.375 115.503 236.641 114.962 236.1C114.421 235.559 113.687 235.255 112.921 235.255Z" fill="#2F2E41"/>
<path d="M112.921 249.718C110.648 249.725 108.435 248.982 106.627 247.605L106.328 247.373V246.992C106.582 245.439 107.38 244.028 108.58 243.009C109.779 241.991 111.302 241.432 112.876 241.432C114.45 241.432 115.972 241.991 117.172 243.009C118.371 244.028 119.169 245.439 119.423 246.992V247.348L119.125 247.58C117.343 248.945 115.166 249.696 112.921 249.718ZM107.663 246.851C109.213 247.903 111.043 248.466 112.917 248.466C114.791 248.466 116.621 247.903 118.171 246.851C117.884 245.674 117.211 244.628 116.258 243.88C115.305 243.132 114.129 242.725 112.917 242.725C111.706 242.725 110.529 243.132 109.576 243.88C108.624 244.628 107.95 245.674 107.663 246.851Z" fill="#2F2E41"/>
<path d="M258.676 145.999H206.81V147.217H258.676V145.999Z" fill="#2F2E41"/>
<path d="M258.676 157.917H206.81V159.135H258.676V157.917Z" fill="#2F2E41"/>
<path d="M258.676 169.844H206.81V171.062H258.676V169.844Z" fill="#2F2E41"/>
<path d="M222.218 432.492C251.074 432.492 274.466 409.114 274.466 380.276C274.466 351.437 251.074 328.059 222.218 328.059C193.363 328.059 169.971 351.437 169.971 380.276C169.971 409.114 193.363 432.492 222.218 432.492Z" fill="white"/>
<path d="M222.26 433.097C211.807 433.097 201.588 429.999 192.897 424.195C184.205 418.391 177.431 410.141 173.43 400.49C169.43 390.838 168.383 380.217 170.423 369.971C172.462 359.724 177.496 350.313 184.888 342.925C192.279 335.538 201.697 330.507 211.949 328.469C222.202 326.431 232.829 327.477 242.486 331.475C252.144 335.473 260.399 342.243 266.206 350.93C272.014 359.616 275.114 369.829 275.114 380.276C275.114 387.212 273.746 394.081 271.09 400.49C268.434 406.898 264.541 412.721 259.633 417.626C254.725 422.531 248.899 426.422 242.486 429.076C236.074 431.731 229.201 433.097 222.26 433.097ZM222.26 328.664C212.049 328.666 202.066 331.694 193.576 337.365C185.086 343.036 178.469 351.096 174.563 360.526C170.656 369.955 169.635 380.33 171.628 390.34C173.621 400.349 178.539 409.543 185.761 416.759C192.982 423.975 202.183 428.889 212.198 430.88C222.214 432.87 232.596 431.848 242.03 427.942C251.464 424.036 259.528 417.422 265.201 408.936C270.875 400.45 273.903 390.473 273.903 380.267C273.883 366.588 268.435 353.476 258.753 343.806C249.072 334.137 235.948 328.7 222.26 328.689V328.664Z" fill="#0071F2"/>
<path d="M278.19 448.72H168.113V449.939H278.19V448.72Z" fill="#2F2E41"/>
<path d="M278.19 459.91H168.113V461.128H278.19V459.91Z" fill="#2F2E41"/>
<path d="M278.191 478.741H181.516V479.959H278.191V478.741Z" fill="#2F2E41"/>
<path d="M176.224 475.218H169.747V481.691H176.224V475.218Z" fill="#0071F2"/>
<path d="M278.191 492.864H181.516V494.082H278.191V492.864Z" fill="#2F2E41"/>
<path d="M176.224 489.35H169.747V495.823H176.224V489.35Z" fill="#0071F2"/>
<path d="M278.191 506.987H181.516V508.206H278.191V506.987Z" fill="#2F2E41"/>
<path d="M176.224 503.473H169.747V509.946H176.224V503.473Z" fill="#0071F2"/>
<path d="M278.191 521.111H181.516V522.329H278.191V521.111Z" fill="#2F2E41"/>
<path d="M176.224 517.596H169.747V524.069H176.224V517.596Z" fill="#0071F2"/>
<path d="M210.65 345.622C213.026 342.026 216.29 339.104 220.127 337.138C223.964 335.172 228.244 334.229 232.553 334.4C247.671 334.889 251.337 351.432 250.798 356.298C250.558 359.095 249.81 361.824 248.592 364.354L242.007 358.743C246.539 363.249 250.064 368.664 252.349 374.631C255.998 384.362 254.248 397.01 249.612 399.936C244.976 402.861 241.808 401.643 241.808 401.643L242.297 395.054C242.297 395.054 237.91 402.853 230.595 404.312C223.281 405.77 202.307 406.749 199.131 403.102C197.217 400.857 195.879 398.18 195.233 395.302L194.752 401.643C194.752 401.643 188.167 396.769 187.918 391.15C187.669 385.53 191.086 377.773 192.786 373.612C194.486 369.451 195.714 367.271 196.195 360.931C196.676 354.59 195.954 351.2 200.342 347.04C204.729 342.879 210.65 345.622 210.65 345.622Z" fill="#2F2E41"/>
<path d="M200.482 412.103C196.443 413.843 189.908 415.418 185.463 417.366C195.215 427.016 208.376 432.444 222.1 432.477C235.824 432.51 249.01 427.144 258.809 417.54C257.101 416.701 255.311 416.04 253.468 415.567C245.656 413.404 234.551 407.055 233.249 404.884C231.947 402.712 230.67 395.153 230.67 395.153L212.615 392.725C212.615 392.725 213.519 402.165 213.519 403.906C213.519 405.646 206.569 409.5 200.482 412.103Z" fill="#F9B499"/>
<path d="M241.915 410.76L222.998 428.679L204.67 410.163C203.293 410.851 201.867 411.506 200.523 412.103C196.484 413.843 189.949 415.418 185.504 417.366C195.256 427.016 208.417 432.445 222.141 432.477C235.865 432.51 249.052 427.144 258.85 417.54C257.142 416.701 255.352 416.04 253.509 415.567C249.49 414.365 245.605 412.754 241.915 410.76Z" fill="#0071F2"/>
<path d="M612.609 242.068H502.532V243.287H612.609V242.068Z" fill="#2F2E41"/>
<path d="M612.609 253.257H502.532V254.476H612.609V253.257Z" fill="#2F2E41"/>
<path d="M612.617 272.088H515.942V273.307H612.617V272.088Z" fill="#2F2E41"/>
<path d="M510.643 268.558H504.166V275.031H510.643V268.558Z" fill="#0071F2"/>
<path d="M612.617 286.212H515.942V287.43H612.617V286.212Z" fill="#2F2E41"/>
<path d="M510.643 282.698H504.166V289.171H510.643V282.698Z" fill="#0071F2"/>
<path d="M612.617 300.335H515.942V301.553H612.617V300.335Z" fill="#2F2E41"/>
<path d="M510.643 296.821H504.166V303.294H510.643V296.821Z" fill="#0071F2"/>
<path d="M612.617 314.458H515.942V315.677H612.617V314.458Z" fill="#2F2E41"/>
<path d="M510.643 310.944H504.166V317.417H510.643V310.944Z" fill="#0071F2"/>
<path d="M556.654 225.84C585.51 225.84 608.902 202.462 608.902 173.623C608.902 144.785 585.51 121.407 556.654 121.407C527.798 121.407 504.406 144.785 504.406 173.623C504.406 202.462 527.798 225.84 556.654 225.84Z" fill="white"/>
<path d="M529.46 196.541L516.432 206.959C525.274 217.609 537.984 224.316 551.771 225.606C565.558 226.896 579.294 222.663 589.96 213.838C592.205 211.984 594.288 209.944 596.188 207.738L576.442 194.833L529.46 196.541Z" fill="#0071F2"/>
<path d="M545.806 181.796C545.806 181.796 534.328 183.288 531.127 187.954C527.926 192.62 525.595 197.071 527.934 199.864C531.805 204.041 536.089 207.815 540.722 211.128C544.546 213.681 550.517 222.408 550.517 222.408C550.992 218.74 551.269 215.05 551.346 211.352C551.346 206.669 547.299 201.613 546.478 197.311C545.657 193.01 552.648 186.263 557.525 188.377C562.401 190.49 566.257 196.897 566.05 199.864C565.843 202.831 566.879 206.495 567.958 211.559C569.036 216.623 569.873 221.033 569.873 221.033C569.873 221.033 577.097 213.731 579.452 205.815C581.807 197.9 580.663 189.877 571.988 184.564C563.313 179.251 545.806 181.796 545.806 181.796Z" fill="#0071F2"/>
<path opacity="0.2" d="M545.806 181.796C545.806 181.796 534.328 183.288 531.127 187.954C527.926 192.62 525.595 197.071 527.934 199.864C531.805 204.041 536.089 207.815 540.722 211.128C544.546 213.681 550.517 222.408 550.517 222.408C550.992 218.74 551.269 215.05 551.346 211.352C551.346 206.669 547.299 201.613 546.478 197.311C545.657 193.01 552.648 186.263 557.525 188.377C562.401 190.49 566.257 196.897 566.05 199.864C565.843 202.831 566.879 206.495 567.958 211.559C569.036 216.623 569.873 221.033 569.873 221.033C569.873 221.033 577.097 213.731 579.452 205.815C581.807 197.9 580.663 189.877 571.988 184.564C563.313 179.251 545.806 181.796 545.806 181.796Z" fill="white"/>
<path opacity="0.2" d="M575.737 187.465C574.601 186.356 573.341 185.383 571.98 184.564C563.248 179.243 545.807 181.796 545.807 181.796C545.807 181.796 534.329 183.288 531.128 187.954C530.763 188.501 530.398 189.048 530.058 189.612C529.649 192.471 530.333 195.38 531.974 197.759C536.751 205.351 546.586 208.99 551.322 211.145C551.173 206.545 547.275 201.555 546.454 197.386C545.633 193.217 552.624 186.338 557.5 188.451C562.377 190.565 566.233 196.972 566.026 199.939C565.818 202.906 566.855 206.569 567.933 211.625L568.116 212.554C568.481 212.197 568.846 211.833 569.21 211.418C573.939 206.238 576.523 199.457 576.442 192.446C576.442 190.761 576.205 189.084 575.737 187.465Z" fill="white"/>
<path d="M543.891 173.499C543.891 173.499 545.176 188.808 545.599 193.068C546.022 197.328 548.361 208.161 555.551 210.274C562.741 212.388 567.037 204.124 565.984 197.958C564.931 191.791 563.015 186.048 563.015 183.917C563.065 182.992 562.99 182.063 562.791 181.157L543.891 173.499Z" fill="#F9B499"/>
<path d="M562.824 181.116L543.891 173.466C543.891 173.466 544.869 185.111 545.392 190.913L563.056 183.553C563.079 182.734 563.001 181.916 562.824 181.116Z" fill="#F7A48B"/>
<path d="M567.311 144.838C567.311 144.838 570.711 163.528 570.711 166.935C570.711 170.341 567.593 180.246 566.183 182.508C564.773 184.771 557.657 186.155 554.846 185.045C552.034 183.934 544.065 176.533 542.406 173.441C541.385 171.569 540.623 169.567 540.142 167.49C540.142 167.49 536.169 169.197 533.059 164.655C529.949 160.113 531.641 155.886 534.718 155.605L537.554 156.433C537.554 156.433 532.454 147.656 534.146 143.694C535.838 139.732 556.256 138.315 560.502 138.315C564.748 138.315 567.311 144.838 567.311 144.838Z" fill="#F9B499"/>
<path d="M569.517 173.159C569.517 173.159 568.969 166.703 567.676 165.774C566.382 164.846 556.72 165.592 556.72 165.592C556.72 165.592 546.984 162.832 546.768 165.045C546.627 166.703 547.067 175.314 547.473 179.351C550.202 181.97 553.278 184.44 554.779 185.045C557.607 186.18 564.731 184.771 566.116 182.508C567.537 179.527 568.649 176.408 569.434 173.201L569.517 173.159ZM567.302 174.27C566.191 177.917 563.794 180.171 562.691 179.624C561.588 179.077 560.651 175.555 559.731 175.19C558.81 174.825 558.072 176.665 556.969 178.331C555.866 179.997 552.905 180.544 551.611 179.442C550.318 178.339 548.833 168.178 548.833 166.885C548.833 165.592 562.326 167.631 562.326 167.631C563.734 167.45 565.154 167.389 566.572 167.449C567.485 167.631 568.405 170.582 567.302 174.27Z" fill="#2F2E41"/>
<path d="M533.027 132.663C533.027 132.663 525.72 139.965 528.498 146.264C531.277 152.563 538.45 164.084 538.45 164.084H539.86L539.578 159.218C539.578 159.218 544.106 157.561 543.236 153.566C542.746 151.222 541.784 149.003 540.408 147.043C540.408 147.043 545.276 150.69 550.89 149.877C556.505 149.065 559.109 142.236 561.091 144.498C563.073 146.761 566.191 148.153 572.129 145.062C578.067 141.97 581.866 131.403 575.372 127.151C568.879 122.899 562.783 126.67 559.383 127.507C555.982 128.344 553.436 122.642 545.79 124.963C540.986 126.485 536.612 129.124 533.027 132.663Z" fill="#2F2E41"/>
<path d="M556.654 226.445C546.2 226.448 535.98 223.353 527.287 217.551C518.593 211.75 511.816 203.502 507.813 193.851C503.81 184.2 502.76 173.579 504.797 163.332C506.834 153.084 511.866 143.671 519.256 136.282C526.646 128.893 536.063 123.86 546.315 121.819C556.567 119.779 567.195 120.823 576.854 124.819C586.513 128.815 594.769 135.584 600.578 144.27C606.387 152.955 609.489 163.168 609.49 173.615C609.477 187.618 603.907 201.044 594.002 210.948C584.097 220.852 570.665 226.425 556.654 226.445ZM556.654 122.012C546.439 122.007 536.453 125.03 527.957 130.698C519.461 136.365 512.838 144.424 508.926 153.853C505.013 163.283 503.986 173.661 505.975 183.674C507.965 193.687 512.88 202.886 520.101 210.106C527.321 217.327 536.522 222.246 546.54 224.24C556.558 226.235 566.942 225.215 576.38 221.311C585.818 217.406 593.886 210.793 599.562 202.306C605.239 193.819 608.27 183.84 608.271 173.632C608.258 159.953 602.816 146.837 593.139 137.163C583.463 127.489 570.341 122.046 556.654 122.029V122.012Z" fill="#0071F2"/>
<path d="M231.756 400.433L230.644 395.07L212.59 392.634C212.59 392.634 218.039 402.994 231.756 400.433Z" fill="#F7A48B"/>
<path d="M207.995 371.722C207.995 371.722 209.455 360.773 212.864 354.905C216.272 349.037 223.595 350.761 226.523 352.709C229.45 354.656 234.078 365.141 236.732 371.954C239.386 378.767 240.629 382.671 240.629 382.671C240.629 382.671 236.417 391.556 230.678 395.103C224.59 398.899 217.873 398.75 212.623 392.667C210.817 390.549 209.341 388.171 208.244 385.613C208.244 385.613 202.157 383.657 200.689 378.543C199.221 373.43 200.44 370.736 202.878 370.031C205.317 369.327 207.995 371.722 207.995 371.722Z" fill="#F9B499"/>
<path d="M318.089 114.685H80.7266V127.598H318.089V114.685Z" fill="#0071F2"/>
<path d="M292.413 190.258C305.765 190.258 316.588 179.441 316.588 166.098C316.588 152.754 305.765 141.937 292.413 141.937C279.062 141.937 268.238 152.754 268.238 166.098C268.238 179.441 279.062 190.258 292.413 190.258Z" fill="#0071F2"/>
<path d="M305.766 186.238L336.832 222.5L340.996 219.275L310.327 182.318L307.947 182.044L305.227 184.539L305.766 186.238Z" fill="#0071F2"/>
<path d="M292.413 185.99C303.405 185.99 312.317 177.084 312.317 166.098C312.317 155.112 303.405 146.206 292.413 146.206C281.42 146.206 272.509 155.112 272.509 166.098C272.509 177.084 281.42 185.99 292.413 185.99Z" fill="white"/>
<path d="M485.199 458.832C480.68 456.005 475.574 454.25 470.271 453.702C467.874 453.453 465.162 453.528 463.213 454.995C462.988 455.127 462.802 455.316 462.674 455.543C462.546 455.77 462.48 456.027 462.484 456.288C462.605 456.652 462.852 456.96 463.18 457.158C466.345 459.411 470.067 460.757 473.942 461.049C477.817 461.341 481.698 460.569 485.166 458.816" fill="#0071F2"/>
<path d="M484.818 458.343C481.371 455.82 478.154 452.996 475.206 449.906C472.244 446.787 470.161 442.941 469.168 438.758C468.976 438.138 468.919 437.484 469.002 436.841C469.085 436.197 469.306 435.579 469.649 435.028C477.329 441.004 483.35 448.762 484.834 458.368" fill="#0071F2"/>
<path d="M485.158 458.733C484.443 454.547 484.505 450.265 485.34 446.102C486.2 441.91 488.6 438.193 492.066 435.683C493.393 438.783 492.821 442.355 491.892 445.629C490.42 450.629 488.145 455.356 485.158 459.628" fill="#0071F2"/>
<path d="M492.621 472.201C488.109 472.921 483.934 475.03 480.679 478.235C477.253 481.351 474.865 485.441 473.837 489.955C478.315 489.681 482.13 486.524 484.875 482.985C487.62 479.445 489.536 475.525 492.563 472.21" fill="#0071F2"/>
<path d="M494.28 474.365C492.484 469.805 491.854 464.87 492.447 460.005C493.041 455.141 494.84 450.502 497.68 446.508C500.284 455.749 499.339 466.192 494.28 474.365Z" fill="#0071F2"/>
<path d="M504.232 486.184C500.068 485.935 495.923 486.913 492.309 488.996C488.696 491.079 485.774 494.176 483.905 497.903C483.742 498.132 483.644 498.401 483.621 498.681C483.597 498.961 483.65 499.242 483.772 499.495C483.948 499.667 484.163 499.793 484.399 499.862C484.634 499.931 484.884 499.942 485.124 499.893C489.138 499.636 492.688 497.224 495.632 494.464C498.576 491.704 501.13 488.546 504.373 486.175" fill="#0071F2"/>
<path d="M503.884 485.537C501.744 478.655 501.612 471.307 503.503 464.352C504.257 461.617 505.518 458.749 508.039 457.473C508.108 457.413 508.189 457.368 508.276 457.34C508.363 457.312 508.455 457.302 508.546 457.309C508.637 457.317 508.725 457.343 508.806 457.385C508.887 457.428 508.959 457.486 509.018 457.556C509.087 457.643 509.136 457.745 509.159 457.854C510.012 459.763 510.38 461.853 510.228 463.938C510.084 466.01 509.767 468.067 509.283 470.088C508.454 473.851 508.089 477.887 505.966 481.128C505.483 481.896 505.048 482.693 504.664 483.515C504.266 484.344 504.266 484.642 503.909 485.289" fill="#0071F2"/>
<path d="M530.191 489.449C529.309 485.584 529.281 481.573 530.107 477.696C530.934 473.818 532.595 470.167 534.976 466.996C535.324 466.541 535.805 466.06 536.336 466.118C537.165 466.192 537.422 467.32 537.389 468.198C537.041 475.814 534.555 483.179 530.216 489.449" fill="#0071F2"/>
<path d="M532.562 491.099C537.163 492.178 541.943 492.249 546.574 491.308C551.206 490.367 555.578 488.435 559.391 485.645C554.906 483.381 549.774 482.743 544.87 483.838C540.018 484.94 535.598 487.153 532.571 491.074" fill="#0071F2"/>
<path d="M534.553 486.134C537.214 482.033 540.808 478.619 545.041 476.17C549.274 473.721 554.026 472.308 558.91 472.044C557.799 475.956 554.573 478.998 550.949 480.838C547.227 482.512 543.292 483.664 539.255 484.261C537.704 484.559 535.573 484.891 534.553 486.109" fill="#0071F2"/>
<path d="M530.696 462.197C532.219 457.57 533.261 452.799 533.806 447.958C534.337 443.081 533.346 438.16 530.969 433.868C526.259 442.985 525.778 453.619 530.555 462.703" fill="#0071F2"/>
<path d="M546.528 454.199C552.035 444.179 563.264 436.189 574.643 435.078C570.255 445.986 558.305 454.423 546.528 454.199Z" fill="#0071F2"/>
<path d="M543.078 456.155C551.305 457.407 558.305 462.645 565.976 465.836C567.59 466.604 569.376 466.941 571.159 466.814C571.989 466.802 572.794 466.535 573.466 466.05C574.139 465.564 574.645 464.884 574.917 464.101C575.189 463.317 575.213 462.469 574.986 461.672C574.758 460.875 574.291 460.167 573.647 459.644C572.563 458.642 571.288 457.867 569.899 457.365C561.522 453.884 552.557 453.776 543.742 455.906" fill="#0071F2"/>
<path d="M538.334 461.915C540.192 462.438 540.822 463.407 542.306 464.659C547.329 468.926 553.269 471.977 559.664 473.577C560.32 473.743 561.199 473.801 561.522 473.204C561.631 472.916 561.647 472.601 561.566 472.303C561.486 472.005 561.314 471.741 561.074 471.546C558.284 468.277 554.662 465.82 550.591 464.435C546.586 462.943 543.128 461.12 538.334 461.534" fill="#0071F2"/>
<path d="M532.969 427.13C536.335 430.232 540.313 432.596 544.648 434.072C548.982 435.548 553.578 436.102 558.139 435.7C558.578 435.708 559.004 435.558 559.341 435.277C559.972 434.597 559.209 433.536 558.462 432.89C551.065 427.13 542.1 424.726 532.994 427.088" fill="#0071F2"/>
<path d="M539.329 424.801C543.789 421.523 548.961 419.345 554.423 418.443C559.885 417.541 565.483 417.942 570.761 419.612C566.652 423.428 561.374 425.744 555.783 426.185C550.26 426.693 544.69 426.224 539.329 424.801Z" fill="#0071F2"/>
<path d="M536.808 408.821C536.079 401.428 536.543 395.559 536.029 388.175C536.029 387.586 535.863 386.873 535.307 386.658C534.536 386.359 533.889 387.313 533.649 388.1C532.575 391.541 532.301 395.181 532.849 398.743C533.396 402.305 534.751 405.695 536.808 408.655" fill="#0071F2"/>
<path d="M536.269 409.633C541.092 406.515 545.252 402.476 548.51 397.748C550.898 394.432 552.972 390.47 552.416 386.417C550.714 386.462 549.043 386.877 547.517 387.633C545.992 388.389 544.65 389.467 543.584 390.794C541.469 393.47 539.931 396.554 539.064 399.853C538.085 403.102 537.405 406.442 536.244 409.633" fill="#0071F2"/>
<path d="M548.294 406.251C559.32 402.173 569.529 396.161 578.44 388.498C574.849 387.056 570.711 387.926 567.112 389.327C558.93 392.44 552.178 398.448 548.137 406.21" fill="#0071F2"/>
<path d="M539.653 413.678C545.202 414.468 550.833 414.495 556.389 413.76C561.821 412.849 566.947 410.702 572.014 408.572C572.459 408.435 572.84 408.14 573.084 407.743C573.164 407.51 573.17 407.257 573.102 407.02C573.034 406.783 572.894 406.572 572.702 406.417C572.306 406.111 571.847 405.895 571.359 405.787C565.76 404.438 559.887 404.79 554.49 406.798C549.321 408.561 544.351 410.861 539.662 413.661" fill="#0071F2"/>
<path d="M507.882 427.378C506.094 423.552 505.145 419.388 505.099 415.165C505.054 410.942 505.912 406.759 507.616 402.895C509.93 406.409 510.204 410.893 509.781 415.07C509.358 419.247 508.122 423.557 507.998 427.759" fill="#0071F2"/>
<path d="M492.721 419.745C487.972 419.677 483.262 420.6 478.89 422.456C474.519 424.311 470.584 427.057 467.335 430.519C472.124 431.084 476.972 430.188 481.243 427.95C485.484 425.695 489.489 423.024 493.202 419.977" fill="#0071F2"/>
<path d="M482.537 416.33C477.893 415.957 473.414 415.385 468.977 416.744C466.721 417.372 464.627 418.48 462.839 419.992C461.051 421.504 459.612 423.385 458.619 425.505C462.995 425.863 467.386 425.039 471.333 423.118C475.255 421.198 478.997 418.929 482.512 416.338" fill="#0071F2"/>
<path d="M497.598 416.479C493.451 413.761 489.147 410.976 484.328 409.849C479.51 408.721 473.846 409.55 470.462 413.205C474.393 415.518 479.17 415.791 483.731 415.775C488.292 415.758 493.866 415.775 498.17 417.25" fill="#0071F2"/>
<path d="M497.647 416.711C490.473 409.707 487.82 397.151 490.689 387.578C496.311 396.192 498.77 406.488 497.647 416.711Z" fill="#0071F2"/>
<path d="M517.253 396.886C518.596 393.753 519.542 390.479 520.744 387.329C521.844 384.103 523.531 381.107 525.72 378.494C527.955 375.872 531.129 374.23 534.561 373.919C533.465 378.74 531.375 383.28 528.423 387.247C525.471 391.215 521.723 394.523 517.419 396.96" fill="#0071F2"/>
<path d="M513.753 401.021C511.531 397.947 508.968 393.852 505.941 391.523C502.914 389.194 499 387.893 495.317 388.722C497.224 392.061 499.883 394.912 503.083 397.047C506.282 399.181 509.936 400.542 513.753 401.021Z" fill="#0071F2"/>
<path d="M514.408 397.134C512.807 393.487 511.619 389.673 510.866 385.763C510.132 381.804 510.76 377.714 512.65 374.159C516.572 381.552 517.825 389.492 514.59 397.192" fill="#0071F2"/>
<path d="M517.336 374.184C519.55 366.857 526.268 361.453 533.516 358.983C534.414 358.617 535.386 358.469 536.352 358.552C536.833 358.609 537.287 358.804 537.658 359.115C538.03 359.426 538.302 359.838 538.442 360.301C538.708 361.494 537.679 362.688 536.709 363.484C531.051 368.354 524.459 372.02 517.336 374.258" fill="#0071F2"/>
<path d="M517.336 368.183C517.626 363.467 517.925 358.627 519.459 354.192C520.993 349.758 523.962 345.515 528.266 343.559C529.013 348.333 526.906 353.115 524.36 357.176C521.814 361.238 518.754 365.158 517.187 369.75" fill="#0071F2"/>
<path d="M517.252 371.449C515.411 366.103 515.237 359.315 512.027 354.657C509.797 351.407 506.222 349.195 504.282 345.747C503.122 349.053 503.286 352.678 504.738 355.867C506.206 359.026 508.231 361.895 510.717 364.337C513.106 366.865 515.113 368.771 517.352 371.449" fill="#0071F2"/>
<path d="M517.335 528.736C517.194 528.736 517.062 493.096 517.062 449.168C517.062 405.24 517.161 369.6 517.302 369.6C517.443 369.6 517.567 405.24 517.576 449.168C517.584 493.096 517.435 528.736 517.335 528.736Z" fill="#2F2E41"/>
<path d="M548.427 422.007C547.993 422.215 547.54 422.381 547.075 422.505L543.393 423.698C540.283 424.767 536.004 426.292 531.368 428.19C526.732 430.088 522.477 431.821 519.989 433.901C519.006 434.72 518.225 435.755 517.709 436.926C517.344 437.755 517.286 438.277 517.236 438.269C517.186 438.261 517.236 438.136 517.236 437.896C517.29 437.543 517.379 437.196 517.501 436.86C517.983 435.652 518.752 434.58 519.741 433.735C521.224 432.474 522.887 431.44 524.675 430.669C526.649 429.749 528.822 428.779 531.169 427.826C535.821 425.919 540.125 424.444 543.269 423.458C544.844 422.969 546.13 422.629 547.025 422.372C547.48 422.205 547.949 422.083 548.427 422.007Z" fill="#2F2E41"/>
<path d="M558.662 396.935C558.552 397.086 558.424 397.223 558.28 397.341L557.144 398.419L552.865 402.29L538.65 414.937C533.102 419.91 528.3 424.593 524.983 428.149C523.324 429.914 522.014 431.382 521.118 432.409L520.081 433.603C519.968 433.749 519.837 433.88 519.691 433.992C519.779 433.829 519.885 433.676 520.007 433.536C520.302 433.122 520.621 432.723 520.96 432.343C521.79 431.274 523.075 429.774 524.717 427.958C529.011 423.272 533.548 418.815 538.31 414.606C543.875 409.683 548.942 405.265 552.657 402.074L557.044 398.319L558.247 397.317C558.364 397.169 558.504 397.04 558.662 396.935Z" fill="#2F2E41"/>
<path d="M532.653 419.96C532.512 419.886 533.673 417.208 534.834 413.827C535.995 410.445 536.543 407.594 536.7 407.619C536.567 409.803 536.103 411.955 535.324 414.001C534.821 415.46 534.243 416.888 533.59 418.286C533.367 418.889 533.051 419.454 532.653 419.96Z" fill="#2F2E41"/>
<path d="M517.335 441.526C517.035 441.218 516.758 440.889 516.506 440.54L514.317 437.73C512.475 435.335 509.929 432.061 507.085 428.48C504.24 424.9 501.611 421.668 499.704 419.363L497.473 416.603C497.178 416.274 496.916 415.916 496.693 415.534C497.034 415.817 497.348 416.13 497.631 416.471L500.019 419.131C501.993 421.402 504.655 424.593 507.483 428.19C510.311 431.788 512.84 435.111 514.657 437.531C515.544 438.733 516.249 439.744 516.713 440.449C516.962 440.783 517.171 441.144 517.335 441.526Z" fill="#2F2E41"/>
<path d="M510.486 432.757C509.11 431.233 508.131 429.394 507.633 427.403C507.094 425.658 506.87 423.831 506.969 422.007H507.202C507.102 422.413 507.036 422.621 506.986 422.621C506.936 422.621 506.986 422.389 506.986 421.966H507.21C507.326 423.748 507.632 425.512 508.122 427.229C508.772 429.128 509.562 430.975 510.486 432.757Z" fill="#2F2E41"/>
<path d="M501.661 421.668C501.053 421.184 500.384 420.782 499.67 420.474C497.873 419.936 495.982 419.786 494.122 420.035C492.238 420.186 490.369 420.488 488.533 420.938C487.781 421.178 487.013 421.363 486.235 421.494C486.917 421.073 487.662 420.765 488.441 420.582C490.275 420.018 492.167 419.662 494.081 419.521C496.013 419.257 497.981 419.47 499.811 420.143C500.59 420.414 501.246 420.955 501.661 421.668Z" fill="#2F2E41"/>
<path d="M499.58 418.982C499.58 419.065 498.385 418.518 496.519 417.871C491.56 416.17 486.248 415.76 481.086 416.678C479.112 417.018 477.917 417.391 477.893 417.308C478.149 417.15 478.429 417.032 478.722 416.96C479.478 416.703 480.248 416.487 481.027 416.313C483.621 415.747 486.284 415.562 488.931 415.766C491.578 415.968 494.181 416.551 496.66 417.498C497.408 417.789 498.139 418.121 498.85 418.493C499.115 418.621 499.36 418.786 499.58 418.982Z" fill="#2F2E41"/>
<path d="M517.252 407.619C516.34 405.087 515.595 402.498 515.021 399.869C514.269 397.286 513.69 394.656 513.288 391.995C514.2 394.527 514.945 397.116 515.519 399.745C516.258 402.331 516.837 404.961 517.252 407.619Z" fill="#2F2E41"/>
<path d="M517.402 407.619C516.676 406.018 515.845 404.468 514.914 402.978C513.866 401.575 512.64 400.315 511.265 399.231C511.787 399.353 512.274 399.597 512.683 399.944C513.711 400.705 514.607 401.629 515.337 402.679C516.441 404.119 517.153 405.822 517.402 407.619Z" fill="#2F2E41"/>
<path d="M517.336 509.731C517.336 509.731 517.17 508.902 516.78 507.344C516.183 505.21 515.38 503.14 514.383 501.161C510.956 494.717 506.708 488.744 501.744 483.391C498.925 480.158 496.188 477.125 493.866 474.207C491.779 471.649 489.893 468.934 488.226 466.085C487.112 464.176 486.161 462.177 485.382 460.109C485.116 459.371 484.926 458.799 484.818 458.393C484.75 458.194 484.703 457.988 484.677 457.78C484.677 457.78 484.984 458.609 485.572 460.042C486.409 462.106 487.405 464.101 488.55 466.01C490.243 468.818 492.144 471.494 494.239 474.017C496.569 476.901 499.306 479.926 502.142 483.134C507.129 488.534 511.361 494.584 514.723 501.119C515.699 503.126 516.453 505.232 516.971 507.402C517.107 507.99 517.209 508.585 517.278 509.184C517.317 509.363 517.337 509.547 517.336 509.731Z" fill="#2F2E41"/>
<path d="M545.433 477.953C544.965 478.265 544.474 478.542 543.965 478.782C542.631 479.535 541.354 480.382 540.142 481.318C538.351 482.711 536.67 484.241 535.116 485.894C533.35 487.758 531.534 489.922 529.676 492.234C525.969 496.884 522.502 501.011 520.421 504.294C519.367 505.951 518.604 507.294 518.107 508.264C517.858 508.769 517.584 509.267 517.277 509.747C517.29 509.6 517.333 509.456 517.402 509.325C517.534 509.059 517.667 508.653 517.908 508.131C518.555 506.729 519.286 505.368 520.097 504.053C522.928 499.843 525.993 495.795 529.278 491.927C531.144 489.607 532.985 487.443 534.776 485.579C536.361 483.92 538.087 482.403 539.935 481.045C541.175 480.132 542.493 479.331 543.874 478.65C544.264 478.454 544.666 478.283 545.076 478.136C545.189 478.062 545.308 478.001 545.433 477.953Z" fill="#2F2E41"/>
<path d="M546.039 488.272C545.008 488.494 543.963 488.647 542.912 488.728C540.407 488.989 537.931 489.478 535.514 490.187C533.125 490.963 530.882 492.134 528.88 493.651C527.354 494.845 526.632 495.815 526.558 495.757C526.674 495.492 526.834 495.248 527.03 495.036C527.525 494.427 528.08 493.872 528.689 493.378C530.662 491.732 532.935 490.483 535.382 489.698C537.829 488.967 540.354 488.522 542.904 488.372C543.943 488.241 544.993 488.208 546.039 488.272Z" fill="#2F2E41"/>
<path d="M527.453 494.679C527.295 494.588 528.647 492.441 529.841 489.557C531.036 486.673 531.036 484.095 531.285 484.12C531.356 484.672 531.336 485.232 531.226 485.777C531.076 487.123 530.773 488.446 530.323 489.723C529.851 490.981 529.245 492.184 528.515 493.312C528.241 493.824 527.882 494.287 527.453 494.679Z" fill="#2F2E41"/>
<path d="M554.556 450.287C554.402 450.396 554.235 450.486 554.059 450.552L552.599 451.224C551.952 451.497 551.173 451.837 550.293 452.309C549.414 452.782 548.394 453.229 547.316 453.876L545.616 454.829C545.027 455.177 544.422 455.583 543.825 456.023C542.63 456.785 541.337 457.68 539.977 458.675C534.23 462.952 529.217 468.134 525.132 474.016C524.228 475.392 523.332 476.685 522.644 477.962C522.279 478.592 521.889 479.155 521.582 479.793C521.275 480.432 520.96 480.987 520.67 481.526C520.064 482.611 519.633 483.647 519.202 484.543C518.825 485.323 518.49 486.122 518.198 486.938L517.576 488.422C517.508 488.598 517.428 488.77 517.336 488.935C517.357 488.745 517.405 488.558 517.477 488.38L518.008 486.863C518.232 486.192 518.53 485.396 518.937 484.476C519.343 483.556 519.766 482.504 520.338 481.393C520.628 480.829 520.927 480.2 521.225 479.636C521.524 479.072 521.914 478.442 522.279 477.771C522.984 476.478 523.863 475.177 524.767 473.776C528.837 467.823 533.884 462.6 539.695 458.327C541.055 457.374 542.324 456.454 543.601 455.699C544.223 455.318 544.803 454.92 545.425 454.589L547.159 453.644C548.245 453.014 549.282 452.566 550.177 452.144C550.957 451.761 551.757 451.421 552.574 451.124L554.075 450.552C554.22 450.438 554.382 450.348 554.556 450.287Z" fill="#2F2E41"/>
<path d="M532.271 465.198C532.478 464.486 532.894 463.854 533.466 463.383C534.848 462.182 536.611 461.51 538.442 461.485C540.22 461.482 541.981 461.828 543.625 462.504C544.325 462.727 544.989 463.048 545.599 463.457C544.885 463.315 544.186 463.11 543.509 462.844C541.878 462.299 540.17 462.02 538.45 462.015C536.744 462.057 535.095 462.637 533.739 463.673C533.223 464.154 532.733 464.663 532.271 465.198Z" fill="#2F2E41"/>
<path d="M528.946 468.646C529.606 467.189 530.077 465.654 530.348 464.079C530.453 462.478 530.35 460.87 530.041 459.296C530.333 459.688 530.529 460.142 530.613 460.622C530.919 461.759 531.004 462.944 530.862 464.112C530.718 465.27 530.367 466.393 529.825 467.427C529.378 468.289 528.996 468.679 528.946 468.646Z" fill="#2F2E41"/>
<path d="M492.663 514.853C493.426 528.471 497.54 542.337 503.851 556.295H531.351C537.331 542.437 541.195 528.612 541.875 514.853H492.663Z" fill="#2F2E41"/>
<path d="M537.405 536.883C537.405 537.024 528.365 537.149 517.211 537.149C506.056 537.149 497.017 537.024 497.017 536.883C497.017 536.743 506.056 536.635 517.211 536.635C528.365 536.635 537.405 536.743 537.405 536.883Z" fill="#FAFAFA"/>
<path d="M536.783 541.823C536.783 541.964 528.299 542.08 517.841 542.08C507.383 542.08 498.916 541.964 498.916 541.823C498.916 541.682 507.392 541.558 517.841 541.558C528.291 541.558 536.783 541.674 536.783 541.823Z" fill="#FAFAFA"/>
<path d="M504.291 523.821C504.647 528.026 504.647 532.255 504.291 536.46C503.959 532.254 503.959 528.027 504.291 523.821Z" fill="#FAFAFA"/>
<path d="M519.011 523.821C519.351 528.196 519.351 532.591 519.011 536.966C518.663 532.591 518.663 528.196 519.011 523.821Z" fill="#FAFAFA"/>
<path d="M532.886 523.68C533.234 528.127 533.234 532.594 532.886 537.041C532.546 532.594 532.546 528.127 532.886 523.68Z" fill="#FAFAFA"/>
<path d="M540.963 523.821C540.963 523.962 530.356 524.086 517.277 524.086C504.199 524.086 493.592 523.962 493.592 523.821C493.592 523.68 504.199 523.572 517.277 523.572C530.356 523.572 540.963 523.647 540.963 523.821Z" fill="#FAFAFA"/>
<path d="M649.082 555.292H80.7266V556.51H649.082V555.292Z" fill="#2F2E41"/>
</svg>
